<svg width="24" height="24" viewBox="0 0 24 24" fill="none" xmlns="http://www.w3.org/2000/svg" class="css-rr1xlh"><path d="M5.67603 8.71578C5.67603 5.1955 8.57884 2.39999 12 2.39999C15.4212 2.39999 18.2204 5.1955 18.324 8.71578C18.324 12.236 15.4212 15.0316 12 15.0316C8.47517 15.0316 5.67603 12.1325 5.67603 8.71578Z" fill="currentColor"></path><path d="M8.20563 16.5473C8.20563 15.8497 7.63936 15.2842 6.94083 15.2842C6.2423 15.2842 5.67603 15.8497 5.67603 16.5473V18.3158C5.67603 19.0134 6.2423 19.5789 6.94083 19.5789C7.63936 19.5789 8.20563 19.0134 8.20563 18.3158V16.5473Z" fill="currentColor"></path><path d="M18.324 16.5473C18.324 15.8497 17.7578 15.2842 17.0592 15.2842C16.3607 15.2842 15.7944 15.8497 15.7944 16.5473V18.3158C15.7944 19.0134 16.3607 19.5789 17.0592 19.5789C17.7578 19.5789 18.324 19.0134 18.324 18.3158V16.5473Z" fill="currentColor"></path><path d="M12 17.3053C12.6986 17.3053 13.2648 17.8708 13.2648 18.5684V20.3368C13.2648 21.0345 12.6986 21.6 12 21.6C11.3015 21.6 10.7352 21.0345 10.7352 20.3368V18.5684C10.7352 17.8708 11.3015 17.3053 12 17.3053Z" fill="currentColor"></path></svg>