<svg width="100" height="100" viewBox="0 0 100 100" fill="none" xmlns="http://www.w3.org/2000/svg">
<g clip-path="url(#clip0_10402_87638)">
<g filter="url(#filter0_f_10402_87638)">
<circle cx="50" cy="50" r="30" fill="#F5AC6C" fill-opacity="0.2"/>
</g>
<path d="M39.0084 56.4341V59.2477C39.0084 59.3503 39.0512 59.4443 39.1367 59.5298C39.2221 59.6153 39.3161 59.658 39.4187 59.658H60.5811C60.6836 59.658 60.7777 59.6153 60.8631 59.5298C60.9486 59.4443 60.9914 59.3503 60.9914 59.2477V56.4341H39.0084ZM39.4187 42.6923H43.7085C43.5974 42.4923 43.5062 42.2623 43.435 42.0025C43.3638 41.7427 43.3282 41.4893 43.3282 41.2425C43.3282 40.3432 43.641 39.5823 44.2666 38.9596C44.8922 38.337 45.6484 38.0256 46.535 38.0256C47.0992 38.0256 47.6235 38.1709 48.108 38.4613C48.5925 38.7518 48.9885 39.1171 49.2961 39.5572L49.9822 40.5521L50.6683 39.5572C50.9845 39.1003 51.3785 38.7307 51.8503 38.4487C52.322 38.1667 52.8341 38.0256 53.3866 38.0256C54.294 38.0256 55.0598 38.3355 55.684 38.9551C56.3082 39.5748 56.6203 40.3411 56.6203 41.2541C56.6203 41.4875 56.5891 41.7227 56.5267 41.9598C56.4643 42.1968 56.3733 42.441 56.2537 42.6923H60.5811C61.1541 42.6923 61.645 42.8966 62.0536 43.3052C62.4622 43.7138 62.6665 44.2046 62.6665 44.7777V59.2477C62.6665 59.8208 62.4622 60.3116 62.0536 60.7203C61.645 61.1289 61.1541 61.3332 60.5811 61.3332H39.4187C38.8457 61.3332 38.3548 61.1289 37.9462 60.7203C37.5376 60.3116 37.3333 59.8208 37.3333 59.2477V44.7777C37.3333 44.2046 37.5376 43.7138 37.9462 43.3052C38.3548 42.8966 38.8457 42.6923 39.4187 42.6923ZM39.0084 53.2102H60.9914V44.7777C60.9914 44.6751 60.9486 44.5811 60.8631 44.4956C60.7777 44.4102 60.6836 44.3674 60.5811 44.3674H52.5674L55.5434 48.4922L54.2101 49.4785L49.9743 43.658L45.7384 49.4785L44.4051 48.4922L47.376 44.3674H39.4187C39.3161 44.3674 39.2221 44.4102 39.1367 44.4956C39.0512 44.5811 39.0084 44.6751 39.0084 44.7777V53.2102ZM46.5476 42.7914C46.9773 42.7914 47.3425 42.6415 47.6431 42.3416C47.9437 42.0417 48.094 41.6769 48.094 41.2472C48.094 40.8174 47.944 40.4522 47.6441 40.1517C47.3443 39.8511 46.9794 39.7008 46.5497 39.7008C46.1199 39.7008 45.7548 39.8507 45.4542 40.1506C45.1536 40.4505 45.0034 40.8153 45.0034 41.2451C45.0034 41.6748 45.1533 42.04 45.4532 42.3405C45.753 42.6411 46.1178 42.7914 46.5476 42.7914ZM53.3862 42.7914C53.8236 42.7914 54.1928 42.6415 54.4938 42.3416C54.7947 42.0417 54.9452 41.6769 54.9452 41.2472C54.9452 40.8174 54.7947 40.4522 54.4938 40.1517C54.1928 39.8511 53.8236 39.7008 53.3862 39.7008C52.9685 39.7008 52.6088 39.8507 52.3071 40.1506C52.0054 40.4505 51.8546 40.8153 51.8546 41.2451C51.8546 41.6748 52.0054 42.04 52.3071 42.3405C52.6088 42.6411 52.9685 42.7914 53.3862 42.7914Z" fill="#EBC5A4"/>
</g>
<defs>
<filter id="filter0_f_10402_87638" x="0" y="0" width="100" height="100" filterUnits="userSpaceOnUse" color-interpolation-filters="sRGB">
<feFlood flood-opacity="0" result="BackgroundImageFix"/>
<feBlend mode="normal" in="SourceGraphic" in2="BackgroundImageFix" result="shape"/>
<feGaussianBlur stdDeviation="10" result="effect1_foregroundBlur_10402_87638"/>
</filter>
<clipPath id="clip0_10402_87638">
<rect width="100" height="100" fill="white"/>
</clipPath>
</defs>
</svg>
