<svg width="24" height="24" viewBox="0 0 24 24" fill="none" xmlns="http://www.w3.org/2000/svg" class="css-rr1xlh"><path d="M18.565 5.44643C16.2801 3.14911 12.4264 2.9805 8.97281 5.0249C8.47793 5.31997 8.30947 5.9628 8.60429 6.45809C8.89911 6.96392 9.55192 7.12199 10.0468 6.82692C12.6475 5.28835 15.4694 5.33051 17.0698 6.9323C18.5334 8.3971 18.6808 10.8946 17.5015 13.3184L16.4688 12.2848C16.3176 12.1335 16.059 12.2406 16.059 12.4544V15.6099C16.059 15.875 16.2739 16.0899 16.539 16.0899H19.6917C19.9054 16.0899 20.0125 15.8315 19.8614 15.6803L19.0704 14.8886C21.0078 11.4742 20.8182 7.70159 18.565 5.44643Z" fill="white"></path><path d="M11.9859 9.32764C11.5315 9.32764 11.0637 9.44794 10.6494 9.68855C9.36633 10.4237 8.93864 12.0545 9.67373 13.3377C10.1683 14.1932 11.0637 14.6744 11.9859 14.6744C12.4404 14.6744 12.8948 14.5541 13.3225 14.3135C14.6056 13.5783 15.0332 11.9342 14.2982 10.6643C13.8036 9.80885 12.9082 9.32764 11.9859 9.32764Z" fill="white"></path><path d="M6.93013 17.0594C8.53058 18.6612 11.3524 18.7034 13.9532 17.1648C14.448 16.8697 15.1008 17.0384 15.3851 17.5336C15.68 18.0395 15.522 18.6823 15.0166 18.9774C13.4162 19.9258 11.721 20.4 10.1416 20.4C8.33052 20.4 6.65637 19.7783 5.43497 18.5558C3.18171 16.3007 2.99218 12.528 4.92957 9.12422L4.13001 8.30995C3.98094 8.15814 4.08849 7.9018 4.30125 7.9018H7.46094C7.72604 7.9018 7.94094 8.1167 7.94094 8.3818V11.5373C7.94094 11.7512 7.68232 11.8582 7.53116 11.7069L6.49843 10.6733C5.31915 13.0971 5.46656 15.5946 6.93013 17.0594Z" fill="white"></path></svg>