<svg width="100" height="100" viewBox="0 0 100 100" fill="none" xmlns="http://www.w3.org/2000/svg">
<g clip-path="url(#clip0_10416_88168)">
<g filter="url(#filter0_f_10416_88168)">
<circle cx="50" cy="50" r="30" fill="#F5AC6C" fill-opacity="0.2"/>
</g>
<path d="M36.3616 59.7433V57.0681C36.3616 56.3719 36.5412 55.7541 36.9004 55.2147C37.2597 54.6754 37.755 54.2604 38.3865 53.9696C39.771 53.3407 41.0745 52.8666 42.297 52.5472C43.5195 52.2279 44.8758 52.0682 46.3658 52.0682C47.8558 52.0682 49.2084 52.2279 50.4235 52.5472C51.6386 52.8666 52.9412 53.3407 54.3314 53.9696C54.9571 54.2604 55.4519 54.6754 55.8157 55.2147C56.1796 55.7541 56.3615 56.3719 56.3615 57.0681V59.7433H36.3616ZM58.7033 59.7433V57.0391C58.7033 55.9565 58.4477 55.0187 57.9365 54.2257C57.4253 53.4327 56.7413 52.7734 55.8846 52.2477C56.9712 52.4049 58.0034 52.6279 58.9811 52.9165C59.9589 53.2051 60.8083 53.5355 61.5293 53.9077C62.1792 54.266 62.6932 54.7133 63.0712 55.2497C63.4493 55.7861 63.6383 56.3826 63.6383 57.0391V59.7433H58.7033ZM46.3658 49.5758C45.0796 49.5758 44.0067 49.1459 43.1469 48.2862C42.2872 47.4264 41.8573 46.3535 41.8573 45.0673C41.8573 43.7812 42.2872 42.7096 43.1469 41.8527C44.0067 40.9958 45.0796 40.5674 46.3658 40.5674C47.652 40.5674 48.7235 40.9958 49.5804 41.8527C50.4373 42.7096 50.8657 43.7812 50.8657 45.0673C50.8657 46.3535 50.4373 47.4264 49.5804 48.2862C48.7235 49.1459 47.652 49.5758 46.3658 49.5758ZM57.2246 45.0673C57.2246 46.3535 56.7962 47.4264 55.9393 48.2862C55.0824 49.1459 54.0098 49.5758 52.7216 49.5758C52.5704 49.5758 52.3988 49.5633 52.2067 49.5382C52.0147 49.5131 51.8435 49.4755 51.6931 49.4254C52.1859 48.8685 52.5615 48.219 52.8199 47.477C53.0784 46.7351 53.2076 45.9328 53.2076 45.07C53.2076 44.2073 53.0741 43.4186 52.8072 42.7041C52.5402 41.9896 52.1689 41.3246 51.6931 40.7092C51.8515 40.6648 52.0227 40.63 52.2067 40.605C52.3908 40.5799 52.562 40.5674 52.7204 40.5674C54.0094 40.5674 55.0824 40.9958 55.9393 41.8527C56.7962 42.7096 57.2246 43.7812 57.2246 45.0673ZM38.0367 58.0681H54.6863V57.0681C54.6863 56.7382 54.5956 56.4331 54.4141 56.1527C54.2326 55.8724 53.9649 55.6436 53.6111 55.4664C52.3153 54.8436 51.1193 54.4008 50.023 54.1378C48.9268 53.8748 47.7077 53.7433 46.3658 53.7433C45.0239 53.7433 43.8025 53.8748 42.7017 54.1378C41.6008 54.4008 40.4025 54.8436 39.1068 55.4664C38.753 55.6436 38.4861 55.8724 38.3064 56.1527C38.1266 56.4331 38.0367 56.7382 38.0367 57.0681V58.0681ZM46.3615 47.9006C47.1609 47.9006 47.8323 47.629 48.3756 47.0857C48.9189 46.5424 49.1906 45.871 49.1906 45.0716C49.1906 44.2722 48.9189 43.6008 48.3756 43.0575C47.8323 42.5142 47.1609 42.2425 46.3615 42.2425C45.5621 42.2425 44.8907 42.5142 44.3474 43.0575C43.8041 43.6008 43.5324 44.2722 43.5324 45.0716C43.5324 45.871 43.8041 46.5424 44.3474 47.0857C44.8907 47.629 45.5621 47.9006 46.3615 47.9006Z" fill="#EBC5A4"/>
</g>
<defs>
<filter id="filter0_f_10416_88168" x="0" y="0" width="100" height="100" filterUnits="userSpaceOnUse" color-interpolation-filters="sRGB">
<feFlood flood-opacity="0" result="BackgroundImageFix"/>
<feBlend mode="normal" in="SourceGraphic" in2="BackgroundImageFix" result="shape"/>
<feGaussianBlur stdDeviation="10" result="effect1_foregroundBlur_10416_88168"/>
</filter>
<clipPath id="clip0_10416_88168">
<rect width="100" height="100" fill="white"/>
</clipPath>
</defs>
</svg>
