<svg width="704" height="344" fill="none" xmlns="http://www.w3.org/2000/svg"><g clip-path="url(#clip0_2988_21512)"><g filter="url(#filter0_f_2988_21512)"><path d="M308 -108C308 -271.476 175.476 -404 12 -404C-151.476 -404 -284 -271.476 -284 -108C-284 55.4763 -151.476 188 12 188C175.476 188 308 55.4763 308 -108Z" fill="url(#paint0_radial_2988_21512)"/><path d="M316 -572C128.223 -572 -24 -419.777 -24 -232C-24 -44.2233 128.223 108 316 108C503.777 108 656 -44.2232 656 -232C656 -419.777 503.777 -572 316 -572Z" fill="url(#paint1_linear_2988_21512)"/></g></g><defs><filter id="filter0_f_2988_21512" x="-384" y="-672" width="1140" height="960" filterUnits="userSpaceOnUse" color-interpolation-filters="sRGB"><feFlood flood-opacity="0" result="BackgroundImageFix"/><feBlend mode="normal" in="SourceGraphic" in2="BackgroundImageFix" result="shape"/><feGaussianBlur stdDeviation="50" result="effect1_foregroundBlur_2988_21512"/></filter><radialGradient id="paint0_radial_2988_21512" cx="0" cy="0" r="1" gradientUnits="userSpaceOnUse" gradientTransform="translate(240.597 -343.251) rotate(142.659) scale(635.908 636.472)"><stop offset="0.527662" stop-color="#2DA2E6"/><stop offset="0.726652" stop-color="#08BD9F"/><stop offset="0.925776" stop-color="#C2F07D"/></radialGradient><linearGradient id="paint1_linear_2988_21512" x1="45.1534" y1="-32.5597" x2="645.539" y2="-494.245" gradientUnits="userSpaceOnUse"><stop offset="0.104898" stop-color="#2DA2E6" stop-opacity="0.6"/><stop offset="0.592548" stop-color="#49D6BE" stop-opacity="0.6"/></linearGradient><clipPath id="clip0_2988_21512"><rect width="704" height="344" fill="white"/></clipPath></defs></svg>