<svg width="704" height="1000" fill="none" xmlns="http://www.w3.org/2000/svg"><g clip-path="url(#clip0_9546_88579)"><g filter="url(#filter0_f_9546_88579)"><path d="M890 511C890 362.988 710.914 243 490 243C269.086 243 90 362.988 90 511C90 659.012 269.086 779 490 779C710.914 779 890 659.012 890 511Z" fill="url(#paint0_linear_9546_88579)"/><path d="M942 570C942 441.87 786.195 338 594 338C401.805 338 246 441.87 246 570C246 698.13 401.805 802 594 802C786.195 802 942 698.13 942 570Z" fill="url(#paint1_radial_9546_88579)"/><path d="M915.429 301.185C1002.26 400.385 952.027 527.732 803.227 585.62C654.421 643.509 463.403 610.018 376.57 510.817C289.737 411.615 339.973 284.27 488.776 226.38C637.582 168.491 828.601 201.982 915.429 301.185Z" fill="url(#paint2_radial_9546_88579)" fill-opacity="0.8"/></g></g><defs><filter id="filter0_f_9546_88579" x="-10" y="98" width="1068" height="804" filterUnits="userSpaceOnUse" color-interpolation-filters="sRGB"><feFlood flood-opacity="0" result="BackgroundImageFix"/><feBlend mode="normal" in="SourceGraphic" in2="BackgroundImageFix" result="shape"/><feGaussianBlur stdDeviation="50" result="effect1_foregroundBlur_9546_88579"/></filter><linearGradient id="paint0_linear_9546_88579" x1="255.364" y1="297.509" x2="561.979" y2="892.626" gradientUnits="userSpaceOnUse"><stop offset="0.104898" stop-color="#2DA2E6"/><stop offset="0.592548" stop-color="#08BD9F"/><stop offset="1" stop-color="#C2F07D"/></linearGradient><radialGradient id="paint1_radial_9546_88579" cx="0" cy="0" r="1" gradientUnits="userSpaceOnUse" gradientTransform="translate(862.756 385.614) rotate(153.041) scale(666.852 559.278)"><stop offset="0.527662" stop-color="#64C3FA"/><stop offset="0.726652" stop-color="#C2F07D" stop-opacity="0.6"/><stop offset="0.925776" stop-color="#2DA2E6"/></radialGradient><radialGradient id="paint2_radial_9546_88579" cx="0" cy="0" r="1" gradientUnits="userSpaceOnUse" gradientTransform="translate(645.998 406) rotate(-21.2574) scale(215.808 457.874)"><stop offset="0.0677083" stop-color="#2DA2E6"/><stop offset="1" stop-color="#C2F07D" stop-opacity="0.6"/></radialGradient><clipPath id="clip0_9546_88579"><rect width="704" height="1000" fill="white"/></clipPath></defs></svg>