<svg width="24" height="24" viewBox="0 0 24 24" fill="none" xmlns="http://www.w3.org/2000/svg" class="css-rr1xlh"><path d="M6.20002 4.2C5.7582 4.2 5.40002 4.55817 5.40002 5V19C5.40002 19.4418 5.7582 19.8 6.20002 19.8H17.8C18.2419 19.8 18.6 19.4418 18.6 19V5C18.6 4.55817 18.2419 4.2 17.8 4.2H6.20002ZM16.18 17.85H7.82002C7.21502 17.85 6.72002 17.3486 6.72002 16.7357C6.72002 16.1229 7.21502 15.6214 7.82002 15.6214H16.18C16.785 15.6214 17.28 16.1229 17.28 16.7357C17.28 17.3486 16.785 17.85 16.18 17.85ZM6.72002 11.1643C6.72002 10.5514 7.21502 10.05 7.82002 10.05H14.86C15.465 10.05 15.96 10.5514 15.96 11.1643C15.96 11.7771 15.465 12.2786 14.86 12.2786H7.82002C7.21502 12.2786 6.72002 11.7771 6.72002 11.1643ZM16.18 8.37857H7.82002C7.21502 8.37857 6.72002 7.87714 6.72002 7.26428C6.72002 6.65143 7.21502 6.15 7.82002 6.15H16.18C16.785 6.15 17.28 6.65143 17.28 7.26428C17.28 7.87714 16.785 8.37857 16.18 8.37857Z" fill="white"></path></svg>