<svg width="32" height="32" viewBox="0 0 32 32" fill="none" xmlns="http://www.w3.org/2000/svg">
<path fill-rule="evenodd" clip-rule="evenodd" d="M4.66675 14.0001C4.66675 7.74085 9.74085 2.66675 16.0001 2.66675C22.2593 2.66675 27.3334 7.74085 27.3334 14.0001C27.3334 18.9435 24.1684 23.1478 19.7541 24.6969C19.7589 24.7789 19.7484 24.8632 19.7209 24.9459L19.2992 26.2108C19.2868 26.248 19.2714 26.2834 19.2535 26.3168C19.5042 26.586 19.6047 26.9885 19.4515 27.3715L18.9182 28.7048C18.7663 29.0845 18.3986 29.3334 17.9897 29.3334H14.0104C13.6015 29.3334 13.2338 29.0845 13.082 28.7048L12.5486 27.3715C12.3838 26.9593 12.5129 26.5243 12.8067 26.2575C12.8004 26.2423 12.7946 26.2268 12.7893 26.2109L12.3676 24.946C12.3434 24.8734 12.3324 24.7996 12.3333 24.7271C7.87358 23.2031 4.66675 18.9761 4.66675 14.0001ZM12.9358 6.61005C13.7031 5.16075 14.56 4.39611 15.3334 4.1209L15.3334 23.8793C14.56 23.6041 13.7031 22.8394 12.9358 21.3901C11.9707 19.5671 11.3334 16.9566 11.3334 14.0001C11.3334 11.0435 11.9707 8.43304 12.9358 6.61005ZM19.0643 21.3901C18.2971 22.8394 17.4401 23.6041 16.6667 23.8793L16.6667 4.1209C17.4401 4.39611 18.2971 5.16074 19.0643 6.61005C20.0294 8.43304 20.6667 11.0435 20.6667 14.0001C20.6667 16.9566 20.0294 19.5671 19.0643 21.3901ZM13.8333 25.1265L14.0542 25.7893C14.0775 25.8592 14.0886 25.9302 14.0886 26.0001H17.9999C17.9999 25.9302 18.011 25.8591 18.0343 25.7892L18.2614 25.1078C17.5307 25.2558 16.7745 25.3334 16.0001 25.3334C15.259 25.3334 14.5346 25.2623 13.8333 25.1265ZM12.6735 23.4334C8.78599 22.0626 6.00008 18.3567 6.00008 14.0001C6.00008 9.64351 8.78599 5.93761 12.6735 4.56673C11.0617 6.59867 10.0001 10.0652 10.0001 14.0001C10.0001 17.935 11.0617 21.4015 12.6735 23.4334ZM19.3267 23.4334C23.2142 22.0626 26.0001 18.3567 26.0001 14.0001C26.0001 9.64351 23.2142 5.93761 19.3267 4.56673C20.9384 6.59867 22.0001 10.0652 22.0001 14.0001C22.0001 17.935 20.9384 21.4015 19.3267 23.4334Z" fill="#D6E1FF" fill-opacity="0.75"/>
</svg>
