<svg width="20px" height="20px" viewBox="0 0 20 20" fill="none" xmlns="http://www.w3.org/2000/svg"><circle cx="10" cy="10" r="10" fill="#C2D2FF" fill-opacity="0.3"></circle><path d="M12.9167 9.99967C12.9167 11.6105 11.6109 12.9163 10 12.9163C8.38919 12.9163 7.08335 11.6105 7.08335 9.99967C7.08335 8.38884 8.38919 7.08301 10 7.08301C11.6109 7.08301 12.9167 8.38884 12.9167 9.99967Z" fill="#272930"></path><path fill-rule="evenodd" clip-rule="evenodd" d="M10 2.87012V0.833008C14.6026 0.833008 18.3335 4.48115 18.3334 8.98129C18.3334 13.4814 14.6025 17.1294 10 17.1294V19.1663C5.39776 19.1663 1.66669 15.5182 1.66669 11.0182C1.66669 6.51809 5.39776 2.87012 10 2.87012ZM3.40779 9.99959C3.40779 13.5595 6.35933 16.4453 10 16.4453C13.6409 16.4453 16.5922 13.5597 16.5922 9.99976C16.5922 6.43981 13.6407 3.55406 10 3.55406C6.35933 3.55406 3.40779 6.43964 3.40779 9.99959Z" fill="#272930"></path></svg>