<svg width="24" height="24" viewBox="0 0 24 24" fill="currentColor" xmlns="http://www.w3.org/2000/svg" class="css-11hn1sp"><path d="M12.9442 20.2744C12.425 20.3344 12 19.9026 12 19.3769L12 4.6231C12 4.0974 12.425 3.66563 12.9442 3.72558C13.7073 3.81369 14.4561 4.00837 15.1686 4.30523C16.1732 4.72379 17.0859 5.33728 17.8548 6.11068C18.6237 6.88408 19.2336 7.80223 19.6497 8.81272C20.0658 9.82322 20.28 10.9063 20.28 12C20.28 13.0937 20.0658 14.1768 19.6497 15.1873C19.2336 16.1978 18.6237 17.1159 17.8548 17.8893C17.0859 18.6627 16.1732 19.2762 15.1686 19.6948C14.4561 19.9916 13.7073 20.1863 12.9442 20.2744Z" fill="currentColor"></path><path d="M7.97836 19.2821C8.41713 19.5278 8.92454 19.1857 8.92454 18.6806V5.31941C8.92454 4.81428 8.41713 4.4722 7.97836 4.7179C5.43832 6.14027 3.71997 8.86828 3.71997 12C3.71997 15.1317 5.43832 17.8597 7.97836 19.2821Z" fill="currentColor"></path></svg>