<svg width="24" height="24" viewBox="0 0 24 24" fill="none" xmlns="http://www.w3.org/2000/svg" class="css-rr1xlh"><path d="M19.2469 13.2887C18.1737 12.67 16.8835 12.7792 15.955 13.4707L13.2058 11.8815V8.69094C14.2669 8.21781 15.0145 7.16238 15.0145 5.91285C15.0145 4.23872 13.664 2.88 12 2.88C10.336 2.88 8.98549 4.23872 8.98549 5.91285C8.98549 7.15025 9.73308 8.21781 10.7942 8.69094V11.8815L8.04496 13.4828C7.10443 12.7913 5.82628 12.67 4.75312 13.3009C3.30616 14.1379 2.81178 15.9819 3.64378 17.4377C4.47579 18.8934 6.32066 19.3908 7.76762 18.5538C8.84079 17.9351 9.3834 16.7462 9.25076 15.5937L12 13.9802L14.7492 15.5816C14.6166 16.7462 15.1592 17.9229 16.2324 18.5416C17.6793 19.3787 19.5121 18.8813 20.3562 17.4255C21.1882 15.9819 20.6938 14.1379 19.2469 13.2887Z" fill="white"></path></svg>