<svg width="24" height="24" viewBox="0 0 24 24" fill="none" xmlns="http://www.w3.org/2000/svg">
<g clip-path="url(#clip0_10256_88011)">
<path d="M24 12C24 5.37258 18.6274 0 12 0C5.37258 0 0 5.37258 0 12C0 18.6274 5.37258 24 12 24C18.6274 24 24 18.6274 24 12Z" fill="white"/>
<path fill-rule="evenodd" clip-rule="evenodd" d="M4.20435 19.7956L18.3447 8.02086C18.518 7.86987 18.6583 7.68488 18.757 7.47739C18.8558 7.26985 18.9109 7.04429 18.9189 6.81463C18.9268 6.58502 18.8875 6.35614 18.8034 6.1423C18.7193 5.92846 18.5921 5.73422 18.4298 5.57151C18.2671 5.40885 18.0727 5.28141 17.8586 5.19711C17.6445 5.11276 17.4154 5.07335 17.1855 5.08133C16.9556 5.08932 16.7297 5.1445 16.522 5.24346C16.3143 5.34242 16.1291 5.48301 15.9781 5.65654L4.20435 19.7956ZM11.0258 7.25388L5.07193 11.7188L9.53733 5.76559C9.62862 5.64388 9.74503 5.54318 9.87863 5.47029C10.0122 5.39745 10.16 5.35409 10.3117 5.34321C10.4636 5.33233 10.6159 5.35414 10.7585 5.40722C10.9011 5.46025 11.0307 5.54334 11.1385 5.65076C11.2464 5.75839 11.3299 5.88799 11.3834 6.03073C11.4369 6.17347 11.459 6.32603 11.4483 6.47807C11.4376 6.63011 11.3944 6.7781 11.3215 6.91196C11.2486 7.04582 11.1477 7.16243 11.0258 7.25388ZM18.2344 14.4631L12.2805 18.928L16.7459 12.9747C16.8373 12.853 16.9537 12.7523 17.0873 12.6794C17.2209 12.6066 17.3685 12.5632 17.5203 12.5524C17.6721 12.5415 17.8245 12.5633 17.9671 12.6164C18.1097 12.6694 18.2393 12.7525 18.3471 12.8599C18.455 12.9675 18.5386 13.0971 18.592 13.2399C18.6455 13.3826 18.6676 13.5352 18.6569 13.6872C18.6462 13.8393 18.6029 13.9872 18.53 14.1211C18.4571 14.255 18.3563 14.3716 18.2344 14.4631Z" fill="#0B0B0B"/>
</g>
<defs>
<clipPath id="clip0_10256_88011">
<rect width="24" height="24" fill="white"/>
</clipPath>
</defs>
</svg>
