<svg width="24" height="24" viewBox="0 0 24 24" fill="currentColor" xmlns="http://www.w3.org/2000/svg" class="css-rr1xlh"><path d="M9.11862 3.60001C7.54684 3.60001 6.00923 4.42081 5.16639 5.88001C3.91353 8.05741 4.66525 10.8504 6.84068 12.1044C7.55823 12.5148 8.34412 12.72 9.11862 12.72C10.6904 12.72 12.228 11.8992 13.0708 10.44C14.3237 8.26261 13.5834 5.46961 11.4079 4.20421C10.679 3.79381 9.89312 3.60001 9.11862 3.60001Z" fill="currentColor"></path><path d="M16.7991 11.4C16.1874 11.4 15.5758 11.556 15.0001 11.88C13.285 12.876 12.6853 15.072 13.6808 16.8C14.3524 17.952 15.5518 18.6 16.7991 18.6C17.4108 18.6 18.0225 18.444 18.5982 18.12C20.3133 17.124 20.913 14.928 19.9175 13.2C19.2458 12.048 18.0465 11.4 16.7991 11.4Z" fill="currentColor"></path><path d="M6.3683 16.26C6.87983 15.3768 7.80612 14.88 8.76006 14.88C9.23012 14.88 9.714 15.0042 10.1426 15.2526C11.456 16.0116 11.9122 17.6952 11.1518 19.02C10.6403 19.9032 9.714 20.4 8.76006 20.4C8.29 20.4 7.80612 20.2758 7.37754 20.0274C6.06414 19.2684 5.60791 17.5848 6.3683 16.26Z" fill="currentColor"></path></svg>