<svg width="724" height="64" fill="none" xmlns="http://www.w3.org/2000/svg"><path d="M361.5 0V64H362.5V0H361.5Z" fill="#C2D2FF" fill-opacity="0.15"/><path d="M360.5 0V12H361.5V0H360.5ZM341 31.5H21V32.5H341V31.5ZM0.5 52V64H1.5V52H0.5ZM21 31.5C9.67817 31.5 0.5 40.6782 0.5 52H1.5C1.5 41.2304 10.2305 32.5 21 32.5V31.5ZM360.5 12C360.5 22.7696 351.77 31.5 341 31.5V32.5C352.322 32.5 361.5 23.3218 361.5 12H360.5Z" fill="#C2D2FF" fill-opacity="0.15"/><path d="M362.5 0V12H363.5V0H362.5ZM383 32.5H703V31.5H383V32.5ZM722.5 52V64H723.5V52H722.5ZM703 32.5C713.77 32.5 722.5 41.2304 722.5 52H723.5C723.5 40.6782 714.322 31.5 703 31.5V32.5ZM362.5 12C362.5 23.3218 371.678 32.5 383 32.5V31.5C372.23 31.5 363.5 22.7696 363.5 12H362.5Z" fill="#C2D2FF" fill-opacity="0.15"/></svg>