<svg width="24" height="24" viewBox="0 0 24 24" fill="none" xmlns="http://www.w3.org/2000/svg" class="css-rr1xlh"><path d="M17.472 10.7387C17.472 10.0749 17.472 9.41108 17.472 8.61448C17.472 0.648525 6.52803 0.648525 6.52803 8.61448C6.52803 9.41108 6.52803 10.0749 6.52803 10.7387C5.57043 11.8009 5.16003 13.2613 5.16003 14.7217C5.16003 18.4392 8.16963 21.36 12 21.36C15.8304 21.36 18.84 18.4392 18.84 14.7217C18.84 13.2613 18.2928 11.8009 17.472 10.7387ZM9.26403 8.61448C9.26403 6.2247 10.7688 5.29533 12 5.29533C13.2312 5.29533 14.736 6.2247 14.736 8.61448C13.9152 8.21619 12.9576 8.08342 12 8.08342C11.0424 8.08342 10.0848 8.21619 9.26403 8.61448ZM12 18.4392V11.4026C13.9152 11.4026 15.9672 12.9958 15.9672 14.8545C15.9672 16.846 13.9152 18.4392 12 18.4392Z" fill="currentColor"></path></svg>