<svg width="20" height="20" viewBox="0 0 20 20" fill="none" xmlns="http://www.w3.org/2000/svg" class="css-rr1xlh"><path d="M2.91698 3.37479C2.9068 3.11788 3.11787 2.90686 3.37484 2.91704L9.3862 3.15522C9.7702 3.17043 9.95215 3.63542 9.6804 3.9071L9.18355 4.40384C9.01142 4.57592 9.01142 4.85492 9.18355 5.02701L10.8986 6.74163C11.0707 6.91372 11.0707 7.19272 10.8986 7.3648L7.36643 10.8961C7.19431 11.0682 6.91524 11.0682 6.74311 10.8961L5.02807 9.18147C4.85594 9.00938 4.57687 9.00938 4.40475 9.18147L3.90728 9.67881C3.63553 9.95049 3.17043 9.76859 3.15521 9.38468L2.91698 3.37479Z" fill="white"></path><path d="M17.0829 16.6253C17.0931 16.8822 16.882 17.0932 16.6251 17.083L10.6137 16.8448C10.2297 16.8296 10.0478 16.3646 10.3195 16.0929L10.8164 15.5962C10.9885 15.4241 10.9885 15.1451 10.8164 14.973L9.10133 13.2584C8.92921 13.0863 8.92921 12.8073 9.10133 12.6352L12.6335 9.10395C12.8056 8.93186 13.0847 8.93186 13.2568 9.10395L14.9718 10.8186C15.144 10.9907 15.423 10.9907 15.5952 10.8186L16.0926 10.3212C16.3644 10.0495 16.8295 10.2314 16.8447 10.6154L17.0829 16.6253Z" fill="white"></path></svg>