<svg width="24" height="24" viewBox="0 0 24 24" fill="none" xmlns="http://www.w3.org/2000/svg" class="css-rr1xlh"><path d="M14.7108 12.4644C15.078 12.2592 15.078 11.73 14.7108 11.5248L12.6912 10.3692L10.65 9.21361C10.2936 9.00841 9.83999 9.26761 9.83999 9.68881V14.3112C9.83999 14.7216 10.2936 14.9808 10.65 14.7648L14.7108 12.4644Z" fill="white"></path><path fill-rule="evenodd" clip-rule="evenodd" d="M20.64 12C20.64 16.7717 16.7717 20.64 12 20.64C7.22824 20.64 3.35999 16.7717 3.35999 12C3.35999 7.22824 7.22824 3.35999 12 3.35999C16.7717 3.35999 20.64 7.22824 20.64 12ZM18.64 12C18.64 15.6672 15.6672 18.64 12 18.64C8.33281 18.64 5.35999 15.6672 5.35999 12C5.35999 8.33281 8.33281 5.35999 12 5.35999C15.6672 5.35999 18.64 8.33281 18.64 12Z" fill="white"></path></svg>