<svg width="20" height="20" fill="none" xmlns="http://www.w3.org/2000/svg"><path d="M10 20C15.5417 20 20 15.5417 20 10C20 4.4583 15.5417 0 10 0C4.4583 0 0 4.4583 0 10C0 15.5417 4.4583 20 10 20Z" fill="#2775CA"/><path d="M4.16654 7.95831C2.95814 11.1667 4.62484 14.7917 7.87484 15.9584C7.99984 16.0418 8.12484 16.2084 8.12484 16.3334V16.9168C8.12484 17.0001 8.12484 17.0418 8.08314 17.0834C8.04154 17.2501 7.87484 17.3334 7.70814 17.2501C5.37484 16.5001 3.58314 14.7083 2.83314 12.375C1.58314 8.41672 3.74984 4.20829 7.70814 2.95829C7.74984 2.91669 7.83314 2.91669 7.87484 2.91669C8.04154 2.95829 8.12484 3.08329 8.12484 3.24999V3.83329C8.12484 4.04169 8.04154 4.16669 7.87484 4.24999C6.16654 4.875 4.79154 6.2083 4.16654 7.95831Z" fill="white"/><path d="M11.9165 3.12499C11.9581 2.95829 12.1248 2.87499 12.2915 2.95829C14.5831 3.70829 16.4165 5.5 17.1665 7.87501C18.4165 11.8333 16.2498 16.0418 12.2915 17.2918C12.2498 17.3334 12.1665 17.3334 12.1248 17.3334C11.9581 17.2918 11.8748 17.1668 11.8748 17.0001V16.4168C11.8748 16.2084 11.9581 16.0834 12.1248 16.0001C13.8331 15.3751 15.2081 14.0417 15.8331 12.2917C17.0415 9.08332 15.3748 5.4583 12.1248 4.29169C11.9998 4.20829 11.8748 4.04169 11.8748 3.87499V3.29169C11.8748 3.20829 11.8748 3.16669 11.9165 3.12499Z" fill="white"/><path d="M10.1253 9.41672C11.8752 9.62502 12.7502 10.125 12.7502 11.5833C12.7502 12.7083 11.9169 13.5833 10.667 13.7917V14.7917C10.6253 15 10.5003 15.125 10.3336 15.125H9.70857C9.50027 15.0833 9.37527 14.9583 9.37527 14.7917V13.7917C8.00029 13.5833 7.33359 12.8333 7.16699 11.7917V11.75C7.16699 11.5833 7.29199 11.4583 7.45859 11.4583H8.16698C8.29198 11.4583 8.41698 11.5417 8.45858 11.7083C8.58358 12.3333 8.95858 12.7917 10.042 12.7917C10.8336 12.7917 11.417 12.3334 11.417 11.6667C11.417 11 11.042 10.75 9.87527 10.5417C8.12528 10.3333 7.29199 9.79173 7.29199 8.41672C7.29199 7.37502 8.08358 6.54172 9.33357 6.37502V5.41671C9.37527 5.20831 9.50027 5.08331 9.66697 5.08331H10.292C10.5003 5.12501 10.6253 5.25001 10.6253 5.41671V6.41672C11.5836 6.50002 12.3335 7.20832 12.5002 8.12502V8.16672C12.5002 8.33332 12.3752 8.45832 12.2085 8.45832H11.542C11.417 8.45832 11.292 8.37502 11.2503 8.25002C11.042 7.62502 10.6253 7.37502 9.87527 7.37502C9.04198 7.37502 8.62528 7.74992 8.62528 8.33332C8.62528 8.91672 8.87528 9.25002 10.1253 9.41672Z" fill="white"/></svg>