<svg width="24" height="24" fill="none" xmlns="http://www.w3.org/2000/svg"><path fill-rule="evenodd" clip-rule="evenodd" d="M12 0C18.6279 0 24 5.37212 24 12C24 18.6279 18.6279 24 12 24C5.37212 24 0 18.6279 0 12C0 5.37212 5.37212 0 12 0Z" fill="white"/><path fill-rule="evenodd" clip-rule="evenodd" d="M23 12C23 5.9244 18.0756 1 12 1C5.9244 1 1 5.9244 1 12C1 18.0756 5.9244 23 12 23C18.0756 23 23 18.0756 23 12ZM24 12C24 5.37212 18.6279 0 12 0C5.37212 0 0 5.37212 0 12C0 18.6279 5.37212 24 12 24C18.6279 24 24 18.6279 24 12Z" fill="#282138"/><path d="M12.0069 2.64946C9.67679 2.64946 7.43103 3.52146 5.71146 5.09389L5.03711 4.43491C6.93391 2.6862 9.41933 1.71533 11.9992 1.71533C14.5791 1.71533 17.0645 2.6862 18.9613 4.43491L18.3023 5.09389C16.5828 3.52146 14.337 2.64946 12.0069 2.64946Z" fill="#5A5564"/><path d="M18.9102 5.69584L19.5691 5.03686V5.02148C21.3178 6.91829 22.2887 9.4037 22.2887 11.9836C22.2887 14.5635 21.3178 17.0489 19.5691 18.9457L18.9102 18.2867C20.4826 16.5672 21.3546 14.3214 21.3546 11.9913C21.3546 9.66117 20.4826 7.4154 18.9102 5.69584Z" fill="#5A5564"/><path d="M5.09438 18.2933C3.52381 16.5741 2.65296 14.3297 2.65296 12.0012C2.65296 9.6726 3.52381 7.42821 5.09438 5.70903L4.4354 5.05005C2.68669 6.94685 1.71582 9.43227 1.71582 12.0122C1.71582 14.592 2.68669 17.0775 4.4354 18.9743L5.09438 18.2933Z" fill="#5A5564"/><path d="M11.9974 21.346C14.3275 21.346 16.5733 20.474 18.2928 18.9016L18.9672 19.5606C17.0704 21.3093 14.585 22.2802 12.0051 22.2802C9.42519 22.2802 6.93977 21.3093 5.04297 19.5606L5.70195 18.9016C7.42151 20.474 9.66727 21.346 11.9974 21.346Z" fill="#5A5564"/><path d="M16.1605 9.80131C16.0287 8.42624 14.8426 7.96496 13.3423 7.82437V5.93091H12.1825V7.78923C11.8772 7.78923 11.5652 7.78923 11.2555 7.78923V5.93091H10.1045V7.83755H7.75195V9.07863C7.75195 9.07863 8.60863 9.06325 8.59545 9.07863C8.74991 9.06164 8.90494 9.10527 9.02787 9.20033C9.15079 9.2954 9.23202 9.43447 9.25442 9.58824V14.8074C9.25112 14.8616 9.23698 14.9146 9.21283 14.9633C9.18869 15.0119 9.15503 15.0553 9.11384 15.0907C9.07343 15.1268 9.02613 15.1544 8.9748 15.1718C8.92346 15.1891 8.86914 15.1959 8.81511 15.1918C8.83048 15.2049 7.97161 15.1918 7.97161 15.1918L7.75195 16.5778H10.0825V18.5152H11.2423V16.6064H12.1693V18.5064H13.3313V16.591C15.2907 16.4724 16.6569 15.9891 16.8283 14.155C16.9667 12.6788 16.2725 12.0199 15.1633 11.7541C15.8376 11.4224 16.255 10.8073 16.1605 9.80131ZM14.535 13.9265C14.535 15.3675 12.0661 15.2027 11.2797 15.2027V12.6459C12.0661 12.6481 14.535 12.4218 14.535 13.9265ZM13.9969 10.3241C13.9969 11.6421 11.9365 11.4817 11.2819 11.4817V9.15771C11.9365 9.15771 13.9969 8.95123 13.9969 10.3241Z" fill="#F09242"/></svg>