<svg width="32" height="32" viewBox="0 0 32 32" fill="none" xmlns="http://www.w3.org/2000/svg">
<path fill-rule="evenodd" clip-rule="evenodd" d="M15.6631 2.75606C15.8694 2.63698 16.1235 2.63698 16.3298 2.75606L27.2994 9.0894C27.5057 9.20849 27.6328 9.42857 27.6328 9.66675V22.3334C27.6328 22.5716 27.5057 22.7917 27.2994 22.9108L16.3405 29.2379C16.24 29.2986 16.1222 29.3335 15.9963 29.3335C15.869 29.3335 15.7499 29.2978 15.6487 29.2358L4.69344 22.9108C4.48717 22.7917 4.36011 22.5716 4.36011 22.3334V9.66675C4.36011 9.42857 4.48717 9.20849 4.69344 9.0894L15.6631 2.75606ZM16.663 27.5121L25.7459 22.2681L21.883 20.0379L16.663 23.0517V27.5121ZM15.3297 23.0516V27.512L6.22302 22.2543L10.0858 20.0241L15.3297 23.0516ZM16.663 21.5121L21.1032 18.9485V13.8217L16.6134 16.4139C16.6454 16.4919 16.663 16.5773 16.663 16.6668V21.5121ZM22.4365 13.0519V18.8179L26.2994 21.0481V10.8217L22.4365 13.0519ZM25.633 9.66687L21.7701 11.8971L16.663 8.9485V4.48806L25.633 9.66687ZM20.4368 12.6669L15.9966 15.2304L11.5562 12.6667L15.9964 10.1032L20.4368 12.6669ZM10.8895 13.8214L15.3794 16.4137C15.3474 16.4917 15.3297 16.5772 15.3297 16.6668V21.512L10.8895 18.9485V13.8214ZM10.2229 11.8969L15.3297 8.94853L15.3297 4.48817L6.36011 9.66675L10.2229 11.8969ZM5.69344 10.8214L9.55618 13.0516V18.7903L5.69344 21.0204V10.8214Z" fill="#D6E1FF" fill-opacity="0.75"/>
</svg>
