<svg width="120" height="120" fill="none" xmlns="http://www.w3.org/2000/svg"><path fill-rule="evenodd" clip-rule="evenodd" d="M30.3709 31.3709C39.3211 22.4208 44.5452 13.1336 42.0391 10.6276C39.533 8.12151 30.2459 13.3455 21.2957 22.2957C12.3455 31.2459 7.12151 40.533 9.62757 43.0391C12.1336 45.5452 21.4207 40.3211 30.3709 31.3709ZM28.1719 29.171C35.2353 22.1076 39.6958 15.116 38.1347 13.5549C36.5736 11.9938 29.582 16.4543 22.5186 23.5177C15.4552 30.5811 10.9947 37.5727 12.5559 39.1338C14.117 40.6949 21.1085 36.2344 28.1719 29.171Z" fill="url(#paint0_radial_4526_23417)"/><path fill-rule="evenodd" clip-rule="evenodd" d="M59.2564 26.8333H59.2806C75.9316 26.8463 89.4259 40.5086 89.4259 57.3602C89.4259 58.249 89.3889 59.1303 89.3141 60C88.1456 73.8067 77.8932 84.9889 64.6315 87.4017L64.6198 87.404C64.6123 87.4055 64.6047 87.4068 64.5967 87.4078C62.9191 87.7112 61.1916 87.8748 59.4294 87.884H59.409C58.3757 87.8771 57.3461 87.8121 56.3385 87.6898C55.7621 87.6195 55.2432 88.0491 55.1911 88.6337C55.0491 90.2265 54.8965 91.9056 54.8187 92.6791C54.719 93.668 53.7876 94.3467 52.8299 94.1243C52.5368 94.0563 52.2286 93.9799 51.9061 93.895C51.9061 93.895 49.4126 93.2286 47.0416 92.1219C36.7303 87.3054 29.5741 76.7499 29.5741 64.5047C29.5741 63.9704 29.6155 62.9311 29.6185 62.8565L29.6186 62.8523C30.3468 49.0823 40.0992 37.7457 53.021 34.8315C53.447 34.736 53.765 34.3745 53.8164 33.9358L54.4539 28.4849C54.543 27.7191 55.1443 27.1184 55.9019 27.0343C57.0047 26.9128 58.1241 26.8448 59.2564 26.8333ZM35.4651 61.0119C35.4651 70.2964 40.6105 78.3633 48.1731 82.4553C49.1551 82.9865 50.6295 83.5337 51.9295 83.9693C52.6274 84.2032 53.3367 83.6415 53.2823 82.8993L51.7437 61.6455C51.5367 58.8131 49.3741 56.5271 46.5869 56.1931L40.566 55.4716C39.7237 55.3708 39.7237 54.1334 40.566 54.0325L47.0371 53.2575C49.7284 52.935 51.8509 50.7874 52.1697 48.0642L53.2166 39.0656C53.305 38.3075 52.5851 37.7083 51.8691 37.949C42.3214 41.159 35.4651 50.2707 35.4651 61.0119ZM56.4827 85.1226C57.4556 85.248 58.4693 85.3275 59.4475 85.3275C72.7145 85.3275 83.47 74.4449 83.4707 61.0203C83.4707 47.5973 72.7153 36.7147 59.4483 36.7147C58.4633 36.7147 57.4919 36.7743 56.5379 36.8905C55.9706 36.96 55.5642 37.4782 55.6315 38.053L56.7509 47.6133C57.081 50.4396 59.3478 52.6301 62.1532 52.8334L78.6221 54.0264C79.5074 54.0898 79.5089 55.4059 78.6236 55.4716L62.5535 56.6746C59.6514 56.8924 57.3469 59.2304 57.1384 62.1667L55.5831 84.0098C55.5438 84.5639 55.9381 85.0523 56.4827 85.1226Z" fill="url(#paint1_radial_4526_23417)"/><path fill-rule="evenodd" clip-rule="evenodd" d="M109.372 77.9609C111.878 80.467 106.654 89.7541 97.7043 98.7043C88.7541 107.654 79.467 112.878 76.9609 110.372C74.4548 107.866 79.6789 98.5793 88.6291 89.6291C97.5793 80.6789 106.866 75.4548 109.372 77.9609ZM105.468 80.8883C107.029 82.4494 102.569 89.4409 95.5052 96.5043C88.4418 103.568 81.4503 108.028 79.8892 106.467C78.3281 104.906 82.7886 97.9145 89.852 90.8511C96.9154 83.7877 103.907 79.3272 105.468 80.8883Z" fill="url(#paint2_radial_4526_23417)"/><defs><radialGradient id="paint0_radial_4526_23417" cx="0" cy="0" r="1" gradientUnits="userSpaceOnUse" gradientTransform="translate(9 10) rotate(44.2116) scale(137.387 138.11)"><stop stop-color="#5A84FA"/><stop offset="0.3333" stop-color="#5A84FA"/><stop offset="0.6666" stop-color="white"/><stop offset="1" stop-color="#7C73FA"/></radialGradient><radialGradient id="paint1_radial_4526_23417" cx="0" cy="0" r="1" gradientUnits="userSpaceOnUse" gradientTransform="translate(9 10) rotate(44.2116) scale(137.387 138.11)"><stop stop-color="#5A84FA"/><stop offset="0.3333" stop-color="#5A84FA"/><stop offset="0.6666" stop-color="white"/><stop offset="1" stop-color="#7C73FA"/></radialGradient><radialGradient id="paint2_radial_4526_23417" cx="0" cy="0" r="1" gradientUnits="userSpaceOnUse" gradientTransform="translate(9 10) rotate(44.2116) scale(137.387 138.11)"><stop stop-color="#5A84FA"/><stop offset="0.3333" stop-color="#5A84FA"/><stop offset="0.6666" stop-color="white"/><stop offset="1" stop-color="#7C73FA"/></radialGradient></defs></svg>